<!-- Life on Mars?'s fingers curled over the top of the picture he carries on the home page. Original artwork, painted for Rebel Rebel. The site shows wwwroot/art/hands/mars.webp, painted from this drawing by Art/Paint. -->
<svg xmlns="http://www.w3.org/2000/svg" viewBox="0 0 400 520" width="400" height="520">
  <defs />
  <g>
    <g class="rs-look-print">
      <g fill="#d9a891"><path d="M69.2 12.2 C69.2 4.0 81.7 4.0 81.7 12.2 L82.5 34.8 C82.5 43.0 70.0 43.0 70.0 34.8Z" transform="translate(1.6 0)" /><path d="M83.2 8.8 C83.2 0.0 96.7 0.0 96.7 8.8 L97.0 37.2 C97.0 46.0 83.5 46.0 83.5 37.2Z" transform="translate(1.6 0)" /><path d="M97.8 9.5 C97.8 1.0 110.8 1.0 110.8 9.5 L110.5 36.5 C110.5 45.0 97.5 45.0 97.5 36.5Z" transform="translate(1.6 0)" /><path d="M111.3 14.5 C111.3 7.0 122.3 7.0 122.3 14.5 L121.5 32.5 C121.5 40.0 110.5 40.0 110.5 32.5Z" transform="translate(1.6 0)" /><path d="M318.3 12.2 C318.3 4.0 330.8 4.0 330.8 12.2 L330.0 34.8 C330.0 43.0 317.5 43.0 317.5 34.8Z" transform="translate(1.6 0)" /><path d="M303.3 8.8 C303.3 0.0 316.8 0.0 316.8 8.8 L316.5 37.2 C316.5 46.0 303.0 46.0 303.0 37.2Z" transform="translate(1.6 0)" /><path d="M289.2 9.5 C289.2 1.0 302.2 1.0 302.2 9.5 L302.5 36.5 C302.5 45.0 289.5 45.0 289.5 36.5Z" transform="translate(1.6 0)" /><path d="M277.7 14.5 C277.7 7.0 288.7 7.0 288.7 14.5 L289.5 32.5 C289.5 40.0 278.5 40.0 278.5 32.5Z" transform="translate(1.6 0)" /></g>
      <g fill="#f3d6c2"><path d="M69.2 12.2 C69.2 4.0 81.7 4.0 81.7 12.2 L82.5 34.8 C82.5 43.0 70.0 43.0 70.0 34.8Z" /><path d="M83.2 8.8 C83.2 0.0 96.7 0.0 96.7 8.8 L97.0 37.2 C97.0 46.0 83.5 46.0 83.5 37.2Z" /><path d="M97.8 9.5 C97.8 1.0 110.8 1.0 110.8 9.5 L110.5 36.5 C110.5 45.0 97.5 45.0 97.5 36.5Z" /><path d="M111.3 14.5 C111.3 7.0 122.3 7.0 122.3 14.5 L121.5 32.5 C121.5 40.0 110.5 40.0 110.5 32.5Z" /><path d="M318.3 12.2 C318.3 4.0 330.8 4.0 330.8 12.2 L330.0 34.8 C330.0 43.0 317.5 43.0 317.5 34.8Z" /><path d="M303.3 8.8 C303.3 0.0 316.8 0.0 316.8 8.8 L316.5 37.2 C316.5 46.0 303.0 46.0 303.0 37.2Z" /><path d="M289.2 9.5 C289.2 1.0 302.2 1.0 302.2 9.5 L302.5 36.5 C302.5 45.0 289.5 45.0 289.5 36.5Z" /><path d="M277.7 14.5 C277.7 7.0 288.7 7.0 288.7 14.5 L289.5 32.5 C289.5 40.0 278.5 40.0 278.5 32.5Z" /></g>
      <g fill="#f7c9c4"><ellipse cx="76.2" cy="34.0" rx="4.0" ry="4.4" /><ellipse cx="90.2" cy="37.0" rx="4.3" ry="4.4" /><ellipse cx="104.0" cy="36.0" rx="4.2" ry="4.4" /><ellipse cx="116.0" cy="31.0" rx="3.5" ry="4.4" /><ellipse cx="323.8" cy="34.0" rx="4.0" ry="4.4" /><ellipse cx="309.8" cy="37.0" rx="4.3" ry="4.4" /><ellipse cx="296.0" cy="36.0" rx="4.2" ry="4.4" /><ellipse cx="284.0" cy="31.0" rx="3.5" ry="4.4" /></g>
    </g>
    <g class="rs-look-ink" fill="#1a0f0d"><path d="M71.8 17.0 Q76.2 19.0 80.8 17.0 L80.2 17.9 Q76.2 19.8 72.3 17.9Z" /><path d="M71.2 27.0 Q76.2 29.0 81.2 27.0 L80.7 27.9 Q76.2 29.8 71.8 27.9Z" /><path d="M85.4 17.0 Q90.2 19.0 95.1 17.0 L94.5 17.9 Q90.2 19.8 86.0 17.9Z" /><path d="M84.8 27.0 Q90.2 29.0 95.7 27.0 L95.1 27.9 Q90.2 29.8 85.4 27.9Z" /><path d="M99.3 17.0 Q104.0 19.0 108.7 17.0 L108.1 17.9 Q104.0 19.8 99.9 17.9Z" /><path d="M98.8 27.0 Q104.0 29.0 109.2 27.0 L108.6 27.9 Q104.0 29.8 99.4 27.9Z" /><path d="M112.0 17.0 Q116.0 19.0 120.0 17.0 L119.4 17.9 Q116.0 19.8 112.6 17.9Z" /><path d="M111.6 27.0 Q116.0 29.0 120.4 27.0 L119.8 27.9 Q116.0 29.8 112.2 27.9Z" /><path d="M319.2 17.0 Q323.8 19.0 328.2 17.0 L327.6 17.9 Q323.8 19.8 319.9 17.9Z" /><path d="M318.8 27.0 Q323.8 29.0 328.8 27.0 L328.1 27.9 Q323.8 29.8 319.4 27.9Z" /><path d="M304.9 17.0 Q309.8 19.0 314.6 17.0 L314.0 17.9 Q309.8 19.8 305.5 17.9Z" /><path d="M304.4 27.0 Q309.8 29.0 315.1 27.0 L314.5 27.9 Q309.8 29.8 305.0 27.9Z" /><path d="M291.3 17.0 Q296.0 19.0 300.7 17.0 L300.1 17.9 Q296.0 19.8 291.9 17.9Z" /><path d="M290.8 27.0 Q296.0 29.0 301.2 27.0 L300.6 27.9 Q296.0 29.8 291.4 27.9Z" /><path d="M280.0 17.0 Q284.0 19.0 288.0 17.0 L287.4 17.9 Q284.0 19.8 280.6 17.9Z" /><path d="M279.6 27.0 Q284.0 29.0 288.4 27.0 L287.8 27.9 Q284.0 29.8 280.2 27.9Z" /></g>
    <g class="rs-look-fx" />
  </g>
</svg>
